<?xml version="1.0" encoding="UTF-8" standalone="no"?>
<svg height="931.94" width="819.75" enable-background="new 0 0 1261.376 1178.853" viewBox="0 0 819.73261 931.90423" xmlns="http://www.w3.org/2000/svg" version="1.1" xml:space="preserve" overflow="visible">
<path d="m573.14 73.03c-10.569 8.536-25.474 0.248-32.995-5.25 9.964-6.635 23.397 2.322 32.995 5.25z"/>
<path d="m477.91 124.78c2.489 1.761 6.021 2.479 6 6.749-3.637 0.461-8.162 4.257-10.499 1.5 0.607-3.643 3.405-5.095 4.499-8.249z"/>
<path d="m381.92 127.03c-17.386 21.69-40.546 37.343-61.493 55.493-15.344 13.296-25.781 30.879-39.745 45.744-1.97 6.029-5.193 10.805-8.999 14.998-4.597 8.652-5.755 20.742-12.749 26.997 0.433-15.344 5.514-27.426 10.499-38.995 5.199-12.064 14.858-19.863 20.998-29.996 1.37-2.261 1.428-5.365 3-7.499 4.486-6.091 13.608-11.563 20.998-17.248 7.326-5.636 14.79-10.924 21.747-15.748 7.639-5.295 12.854-12.638 19.498-17.998 7.862-6.343 18.261-10.028 24.747-16.498 0.871-0.122 1.333 0.166 1.499 0.75z"/>
<path d="m685.63 249.26c6.229-2.516 8.248-11.55 16.498-9.749 1.337 5.464-3.08 16.064-8.249 22.497-1.481 1.843-5.464 3.123-7.499 5.25-4.438 4.637-5.682 8.963-9.749 8.249-5.065-0.889-4.917-7.566-5.249-14.248-3.288-2.216-4.926 1.701-8.249 0-5.563-6.987-1.964-20.322-0.75-29.247-4.106-0.456-8.642 4.746-13.498 5.999-3.333 7.166-3.561 17.438-8.249 23.248-0.297 25.45-17.468 34.026-20.248 56.993 0.239 1.761 2.321 1.679 3 3 9.121-1.627 10.8-10.697 23.247-8.999 7.822 7.856 1.824 18.5-0.75 27.746 3.338 1.329 5.01-4.799 10.499-3.75-1.537 12.529-18.853 27.071-29.996 15.748 2.168-6.641 11.21-12.506 5.999-21.747-7.902-0.653-10.062 4.437-15.748 5.999-6.299-1.558-12.115-4.041-13.499-9.749-3.91-16.131 25.391-47.148 5.25-53.993-5.952 3.547-2.672 16.326-10.499 17.998-10.635-14.491-15.326-45.919-8.249-66.742 2.928-8.612 10.392-17.887 12.749-26.997 3.204-12.385-1.094-29.375 2.999-40.495 5.045-13.706 20.386-18.887 27.747-26.247 7.603-0.646 13.724-2.774 22.497-2.25 5.182 4.307 12.339 7.008 16.498 12.749 9.504 13.118 10.313 35.524 12.748 58.492 4.236 7.185 9.679 13.814 8.999 22.498-0.719 9.168-9.731 17.317-8.249 27.747z"/>
<path d="m459.16 135.28c-3.862 6.679-13.996 10.943-20.997 11.999 4.483-5.872 12.865-14.639 20.997-11.999z"/>
<path d="m497.4 173.52c-2.292-0.542-2.732 0.767-4.499 0.75-2.288-5.961-8.289-8.209-7.499-17.248 10.622-6.345 13.069 8.873 11.998 16.498z"/>
<path d="m424.66 167.52c-0.757 4.242-6.837 3.162-5.249 9.749-3.291-1.958-7.279-3.22-7.499-8.249 4.852 0.102 8.221-1.278 12.748-1.5z"/>
<path d="m483.91 181.02c-6.693 4.917-13.345-3.946-12.749-7.499 1.512-9.009 12.08 2.24 12.749 7.499z"/>
<path d="m451.66 205.02c-10.744 5.507-12.632-8.84-15.748-15.748 8.376-5.703 13.299 8.363 15.748 15.748z"/>
<path d="m468.91 202.02c-2.561 0.189-3.604 1.896-6.75 1.5-2.863-3.473-2.9-10.856 1.5-12.748 3.706 1.793 4.854 6.145 5.25 11.248z"/>
<path d="m412.66 207.27c-5.253 5.496-10.508 10.99-20.248 11.999 4.444-5.85 12.495-11.942 20.248-11.999z"/>
<path d="m376.67 243.26c-0.805 5.063-3.796 11.541-9.749 8.999 1.011-5.122 5.612-16.163 9.749-8.999z"/>
<path d="m401.42 240.26c5.386 1.613 1.321 12.677 5.249 15.748-3.138 1.128-11.426 1.617-13.498-0.75 1.13-6.618 1.289-14.209 8.249-14.998z"/>
<path d="m453.91 363.25c-9.612 14.886-18.541 30.454-29.997 43.495-8.725-1.226-12.823 2.174-17.248 5.25-12.541-4.802-20.53 4.827-27.747 8.999-3.083 1.782-7.092 1.58-9.749 3-3.921 2.096-5.049 3.529-11.249 5.25-6.703 1.86-13.771 7.056-21.748 3.75 8.478-7.679 19.07-11.703 28.497-17.998 22.318-14.903 41.305-33.624 68.991-45.744 7.166-3.139 12.611-7.108 20.25-6.002z"/>
<path d="m633.89 412.74c5.356 2.393 8.526 6.972 10.499 12.749-3.996-3.335-11.489-6.899-10.499-12.749z"/>
<path d="m639.14 436.74c10.188 10.559 19.753 21.742 31.496 30.746-14.852-2.148-23.747-16.747-32.246-27.747-0.318-1.567 0.513-1.986 0.75-2.999z"/>
<path d="m38.46 499.73c2.109-0.109 2.163 1.836 2.25 3.749-1.314-0.685-2.605-1.394-2.25-3.749z"/>
<path d="m39.96 504.98c5.728 3.521 6.74 11.758 10.499 17.248-5.794-3.455-8.707-9.79-10.499-17.248z"/>
<path d="m547.65 516.23c11.242-2.413 19.654 22.042 8.248 23.247-2.98 0.314-2.801-2.063-5.999-2.25-1.566-7.414-2.051-16.057-2.249-20.997z"/>
<path d="m50.46 523.73c2.348-0.349 3.348 0.651 3 2.999-1.114-0.886-3.351-0.648-3-2.999z"/>
<path d="m271.68 545.47c-17.321-2.633-36.76-2.796-50.994 3 2.064-9.829 15.15-10.454 25.497-9.749 9.759 0.665 20.898 2.815 25.497 6.749z"/>
<path d="m288.93 568.72c-21.561-5.7-41.978-11.688-66.742-10.499 18.247-6.777 53.724-0.326 66.742 10.499z"/>
<path d="m322.67 606.22c-8.653 5.942-15.16-1.785-23.997-2.25-13.225-0.694-24.848 6.071-38.245 2.25-11.142-3.178-22.73-18.934-40.495-17.998 1.072-3.677 6.95-2.548 5.25-8.998-3.688-2.411-7.248 1.73-11.999 0.75 9.013-11.542 29.144-16.333 48.744-12.749 7.128 3.871 14.314 7.684 21.748 11.249 0.765 0.985 0.735 2.764 1.5 3.749 15.115 5.381 22.856 18.138 37.494 23.997zm-31.496-17.248c-14.572-6.711-31.787-11.298-50.994-6.749 0.122 3.378 3.984 3.016 4.5 5.999 11.972 2.396 24.896 9.627 38.995 10.499 4.359 0.27 12.582 1.014 15.748-3-0.222-3.527-6.188-1.312-8.249-2.999 0.082-1.865 1.406-2.321 0-3.75z"/>
<path d="m260.43 626.46c12.592-1.652 22.688 7.021 32.246 12.748-3.412 7.646-12.848 1.216-17.248-1.5-5.73-3.537-10.557-9.09-14.998-11.248z"/>
<path d="m347.42 646.71c-0.507 1.742-2.492 2.008-3 3.749-11.854-0.145-15.034-8.962-24.747-11.248 7.386-10.675 24.805-0.367 27.747 7.499z"/>
<path d="m408.17 679.71c-2.75 12.279-24.499 2.363-34.496 6.749-2.65-2.35-5.667-4.332-6.75-8.249 6.844-10.497 19.712-0.343 27.747 0.75 4.578 0.623 9.711-3.073 13.499 0.75z"/>
<path d="m342.92 384.24c21.767-7.229 35.686-22.307 56.993-29.996 1.625-3.374-0.126-10.125 1.5-13.499 2.642-2.377 3.479-0.435 6.749 0 1.903-1.346-0.459-6.958 2.25-7.499 4.174-2.828 2.782 5.465 6.749 5.25-0.153-12.652 3.225-21.772 11.249-26.247 1.262 3.737 1.061 8.938 3.749 11.249 6.584-8.755-1.277-22.69 0.75-32.246 1.314-6.192 7.341-8.882 11.249-12.749 2.687 7.062 4.171 15.326 8.999 20.248 0.488-6.016 0.042-13.553-1.5-21.748-2.405-12.777-12.854-27.792 3.749-26.996 0.699-6.812-9.244-13.943-0.75-17.248 11.28 12.834 11.469 33.968 19.498 48.744 2.189-13.94-4.577-25.417-5.999-38.245 14.465 2.283 14.104 19.392 17.997 32.246 3.952 3.477 13.528 4.315 18.748 2.25 0.347-10.033-5.834-21.443-0.75-29.246-0.425-2.575-1.411-4.588-2.999-6 0.539-2.46 5.169-0.83 5.249-3.75-0.253-8.246-1.995-15.003-3.75-21.747 3.902-3.14 4.47-5.769 3.75-10.499 5.761 2.238 12.694 3.303 18.747 5.249 1.636 6.113 1.127 14.372 4.5 18.748 4.829-25.168 1.937-53.748-3-75.74 2.739-1.987 7.528-4.3 11.249-3 3.063 5.936 2.845 15.153 7.499 19.498 4.715-21.767-2.872-39.541-7.499-56.993 10.746-2.442 15.727 7.229 23.997 9.749 8.127-6.258 12.689-23.62 26.246-19.498-1.3 4.538-5.33 12.602-10.498 15.748-6.277 29.497-17.134 60.836-26.997 89.239-1.589 80.935 21.193 150.21 81.74 173.98-0.231 4.268-4.511 4.489-5.999 7.499-2.826 1.132-3.434-3.864-8.249-1.5 1.287 44.71 22.887 75.598 56.242 90.738-0.185 2.315-0.76 4.239-1.499 6-4.563 0.563-6.765-1.235-10.499-1.5-3.964 4.8-3.909 13.265-4.5 19.497-1.197 12.647-2.019 25.184-1.499 36.745 3.467 1.943 4.914-4.565 9.748-3.749 0.147 22.127-2.655 45.268 0 63.742 0.931 6.471 7.504 18.511-1.499 23.997-4.231-2.769-2.008-11.991-5.25-15.748-2.82 4.611-4.34 11.652-2.999 16.498-4.739 23.258-12.94 43.052-13.499 70.491-1.88 3.965-4.355 2.099-5.249 5.999-1.486 6.49 7.115 11.243 5.999 17.248 9.163-0.04 19.702-1.167 29.247-2.25 11.78-28.17-4.905-64.254-1.5-101.24 1.788-19.431 13.95-38.18 21.747-55.493 3.738-8.302 3.5-16.764 9.749-21.747 4.479-32.267 16.356-57.134 30.746-79.49-1.506-16.242-8.359-27.137-15.748-37.495-5.316 4.434-1.091 10.43-0.75 15.748 0.553 8.641-2.235 19.917-3 28.496-0.76 8.537-0.793 16.525-2.999 23.997-2.615 8.856-9.371 17.367-11.999 26.247-2.391 8.077-2.838 15.251-8.999 18.747 5.942-32.01 13.214-69.446 7.499-107.24-3.926-25.964-12.06-46.384-7.499-74.991-5.661 0.338-4.931 7.068-7.499 10.499-6.392-4.841 1.395-12.759 3.75-17.998 7.053-15.687 10.979-36.112 12.748-59.243-7.441-0.134-12.582 12.369-20.247 11.999-3.958-0.291-2.471-6.028-4.5-8.249 3.939-5.271 9.549-9.859 14.998-14.998 10.021-9.447 16.897-16.07 24.747-29.246 2.966-4.978 6.149-10.813 8.249-15.748 5.355-12.587 8.523-24.413 9.749-41.245 2.334-32.062-0.99-57.32-13.498-77.99-3.963-6.547-10.104-11.6-12.749-19.498 7.792-2.714 15.399 5.356 19.498 10.499 6.453 8.097 13.152 21.341 16.498 29.246 1.802 0.947 4.534 0.964 5.999 2.25 0.426 5.073 2.889 8.11 4.499 11.999 3.24-6.129 2.861-16.532 2.25-24.747-0.972-13.061-6.461-21.439-11.249-29.247-6.873-3.375-11.155-9.342-18.747-11.999-0.477 5.386 7.188 6.092 5.249 10.499-13.259-2.238-20.369-10.626-30.746-15.748-21.939-5.071-44.656-15.614-70.491-11.998-1.99-1.26-4.526-1.973-6.749-3-5.895-0.072-11.311 1.844-14.998-1.5 9.716-5.391 23.087-4.376 33.746-6 9.066-1.381 20.742-0.501 29.246 0.75 10.522 1.548 19.508 7.371 26.247 0 37.884 1.192 65.845 18.583 84.739 41.245 12.245 29.849 10.756 60.565 2.249 90.738-5.589 19.827-14.749 47.426-18.747 70.491-1.959 11.302-0.421 24.817-1.5 35.246-1.768 17.081-1.582 30.061-5.249 42.745-1.891 6.538-5.214 13.161-8.249 19.498-6.306 13.164-17.356 30.786-19.498 49.494-2.801 24.469 16.643 31.576 14.998 49.494-0.589 6.418-5.411 10.701-5.249 16.498 0.134 4.803 4.299 10.263 5.249 14.248 4.157 17.437 3.072 34.414 5.25 51.743 4.128 32.856 27.828 48.206 45.744 68.242-9.118-32.13-40.896-52.088-41.245-92.988 12.172 26.073 26.922 49.568 41.995 72.74-3.889-15.241-11.867-27.081-19.498-39.745-3.675-6.098-9.248-11.881-11.998-17.997-4.823-10.729-5.597-23.442-8.249-35.246-2.602-11.574-7.798-22.444-8.249-35.245 6.575 2.674 5.188 10.44 6.749 14.998 3.244 9.477 7.574 19.896 11.998 29.246 12.597 26.62 28.553 49.409 32.246 85.489-0.051 3.503-1.714-0.878-2.999-0.75 1.966 9.481 7.18 23.277 2.999 33.746-5.714-6.523-10.566-12.872-17.247-18.748-15.961-14.035-38.158-28.414-42.745-53.993-2.506-13.973-2.163-28.934-3.749-44.244-0.563-5.428-0.625-12.469-4.5-17.248-5.216 5.301-7.102 13.352-9.749 20.248-5.56 14.483-8.248 29.138-10.498 45.744-1.106 8.159-1.105 18.646-3.75 26.246-2.663 7.656-8.371 12.49-11.998 18.748-7.32 12.626-11.897 34.926-10.499 52.493 1.339 16.813 7.943 27.409 3.75 45.744-2.271 9.923-11.067 19.9-7.5 31.496-6.582 6.911-10.984 15.844-16.497 23.997-5.111 7.559-10.358 16.806-19.498 20.248 0.178-11.604 5.525-24.447 8.999-35.246-0.929-3.783-8.072-2.021-11.249-1.5-3.787 12.225-2.819 29.072-2.999 46.494-1.728 1.522-3.809 2.691-5.25 4.5-8.647-18.099-12.182-41.312-17.997-62.242-1.05-3.799 3.44-2.06 2.999-5.25-0.309-13.626-7.925-23.419-6.749-35.245 0.718-7.216 6.539-15.794 10.499-23.247 7.433-13.991 14.046-27.592 20.247-43.495 5.546-28.87-7.82-62.945-3.749-94.487 3.372-26.133 2.518-50.387-15.748-61.493-4.749 71.246-51.323 101.58-72.741 156.73-1.612 20.636-7.092 37.403-19.497 47.244 8.898 22.195-3.869 43.689-18.748 53.244-11.471 12.776-22.987 25.506-38.245 34.495-4.696-13.049-5.244-28.182-7.499-46.494-1.38-11.208-5.231-23.923-3.75-31.496 1.888-9.647 12.592-12.927 17.248-20.247 3.757-16.63 2.136-31.884 8.249-47.994-2.825-22.596 15.009-37.233 20.997-59.243 2.539-9.328 5.295-21.817 6-31.496 0.425-5.838-0.617-12.157 0-17.997 1.554-14.708 5.787-27.868 8.249-44.995 1.224-8.517 5.112-15.728 0-23.247-7.379 3.12-8.858 12.139-17.248 14.248 2.455-8.58 8.897-16.694 11.248-28.496 1.316-6.608 1.357-14.317 1.5-22.498-5.153 2.262-4.781 8.5-6.749 12.749-6.402 13.825-18.6 32.219-32.996 38.995-0.904-4.555 4.591-8.796 6.749-12.749 3.874-15.39 12.023-33.546 5.25-50.994-8.551 33.945-23.824 61.166-46.494 80.99 13.587 47.362-32.26 77.109-38.246 117.74-2.854 19.371 10.628 28.547 14.999 43.495 18.289 4.71 30.764 11.627 25.496 31.496-0.512 1.931-2.989 3.934-4.499 7.499-3.681 8.691-6.072 16.399-12.748 23.247-3.963 4.064-10.633 8.433-15.748 12.748-6.209 5.237-11.563 10.47-16.499 11.249-5.089 0.804-10.1-2.619-12.748 1.499 7.025 27.471 18.063 50.929 32.996 70.491 6.008 12.043 9.358 33.303 3 47.244 6.938 14.427 22.699 19.033 20.247 39.745-1.447 12.228-8.684 25.851-12.748 37.496-4.014 11.497-12.53 21.45-17.248 27.746-9.089-5.57-13.816-16.214-20.998-25.497-6.624-8.563-16.133-16.622-20.248-26.246-5.599-13.099 0.645-27.021-0.75-43.495-34.563-14.46-19.363-71.934-26.997-108.74-3.244-15.638-6.79-29.588-11.249-41.245-26.353-0.036-60.333 0.774-84.739-5.999-23.274-6.46-35.927-24.647-54.743-34.495-3.138-5.611-8.382-9.116-12.749-13.499-7.604 10.395-6.492 29.504-13.498 40.495-1.491 12.082-6.206 27.235-11.999 37.495 1.337 3.574-0.541 4.499-1.5 7.499 1.48 23.481 1.442 39.415 6 58.493-3.535 14.558 4.76 43.833-8.999 50.243-7.132-0.504-15.67 0.98-17.248 6-2.582 8.213 6.054 18.409 4.5 25.496-2.525 11.512-20.876 17.376-32.246 23.247-12.331 6.369-19.587 13.218-34.496 11.249 1.882-16.542 10.19-32.667 11.249-49.494 0.759-12.067-0.29-27.25 12.749-31.496-4.793-6.549-3.578-16.349-7.499-24.746 3.93-14.654 18.122-33.001 19.498-51.744 1.888-25.727-12.117-57.511-10.499-83.239 0.858-13.646 9.734-35.291 14.998-49.494 1.325-3.576 4.114-6.013 3.75-8.999-0.756-6.198-13.146-12.035-16.498-17.248-5.376-17.87-22.79-23.704-42.745-26.996-3.132-0.633-3.542 1.458-5.999 1.5-3.896-1.854-5.14-6.358-9.749-7.499-3.645-11.87-13.465-19.66-13.48-32.96-8.698-15.8-9.109-39.89-17.248-56.24 0.876-14.985-11.456-39.915 1.5-53.243 13.612 4.135 24.241 11.255 34.496 18.748 3.397 7.892 10.549 12.895 15.748 19.498 9.244 11.741 16.766 25.833 31.496 32.246-4.91-20.759-3.738-52.269 2.25-72.741 11.172-19.324 23.499-37.493 34.496-56.993 2.707-13.196 7.36-25.746 12.749-38.995 6.253-15.375 12.634-24.063 22.497-35.996 4.243-5.133 8.598-11.135 12.749-15.748 3.044-3.383 6.687-7.665 9.749-10.499 2.381-2.204 5.938-2.994 8.249-5.25 2.488-2.429 3.393-6.152 5.999-8.999 11.884-12.98 30.629-20.883 42.745-31.496 8.889-7.787 13.771-22.878 22.497-32.246 11.528-12.375 32-22.098 50.244-29.997 19.025-8.237 32.428-23.481 47.244-32.996 4.329-2.78 10.446-5.224 15.748-8.249 12.559-7.166 21.077-10.1 35.996-16.498 6.67-2.86 13.283-7.25 19.497-8.999 15.52-4.367 31.032-4.518 44.244-11.999 12.347-1.152 20.015-6.983 29.997-10.499 21.538-20.326 60.112-36.109 97.487-35.246 24.657 0.57 44.416 13.41 66.742 16.498 12.017 8.131 31.51 10.499 50.243 10.499 13.397 0 26.863-1.724 37.495 2.25 2.421 0.905 3.833 3.523 6 4.5 2.855 1.286 6.387 0.988 8.998 2.25 5.654 2.732 8.537 7.904 14.249 10.499 23.246 25.534 28.551 64.694 24.746 102.74-0.514 5.14-2.992 9.844-3.749 14.998-2.817 19.188-4.298 36.418-8.249 56.993-3.731 19.431-9.907 41.257-14.248 64.492-2.377 12.724-6.566 25.42-8.249 37.496-1.713 12.287-1.427 26.993-5.25 36.745 1.162 15.693-2.844 30.388-1.499 47.244 2.657 33.325 12.48 64.562 25.496 92.238 5.823 12.383 14.416 25.722 15.748 40.495 1.091 12.082-2.64 30.537-8.249 40.495-4.678-9.52-1.225-23.747-2.249-33.746-1.025-10.01-6.53-21.624-10.499-31.496-14.765-36.722-33.54-67.781-30.746-122.23 1.207-23.535 4.268-47.738 8.249-72.741 1.577-9.904 5.593-20.006 7.499-30.746 4.941-27.839 6.821-61.286 12.748-89.989 7.631-36.947 11.677-85.013-8.249-111.74-3.687-4.944-9.722-7.922-14.248-12.749-2.594-2.766-3.954-7.221-6.749-9.749-7.888-7.135-28.494-16.284-40.495-19.498-19.866-5.32-42.136-1.597-65.241-3.75-25.219-2.35-46.06-12.095-67.492-17.248-36.344-2.056-59.622 11.98-83.989 23.997-13.229 12.776-32.649 19.427-51.743 27.747-18.277 7.963-35.056 20.387-53.244 26.247-2.442 0.787-8.815 0.81-12.749 0.75 3.943-8.056 18.194-5.803 23.247-12.749-31.76 1.354-53.764 26.288-77.99 40.495-18.877 11.07-42.199 14.169-57.743 29.996 7.242-0.596 16.97-8.937 24.747-8.999-4.797 6.952-13.414 10.084-17.248 17.998 3.012 2.473 4.853-2.618 8.249-2.25-6.014 12.484-19.901 17.095-28.497 26.997-14.411 4.587-25.55 12.446-37.495 19.498-8.616 10.869-23.742 16.712-33.746 26.247-4.184 3.987-6.607 9.642-11.249 14.998-4.318 4.983-9.642 8.686-13.498 14.248-3.724 5.372-5.809 12.23-11.999 15.748-8.827 14.448-12.725 32.325-17.998 49.494-2.05 6.674-4.462 14.394-7.499 20.247-1.365 2.633-4.442 4.661-5.999 7.5-4.346 7.922-5.522 17.153-11.999 21.747-1.583 12.335-6.39 19.36-6.749 31.496-1.037 35.038 15.863 60.949 29.996 83.239 3.994 0.245 6.002-1.496 7.499-3.749-7.491-18.384-3.276-39.372-8.999-59.243-2.524-8.765-8.409-16.197-9.749-24.747-3.036-19.372 5.649-32.433 10.499-52.494 13.047-22.627 16.844-52.468 30.746-73.491 4.769-7.211 8.918-16.084 16.498-19.498 0.795 14.864-8.051 26.392-7.499 43.495 9.34-6.569 12.722-22.723 18.748-35.246 2.241-4.657 6.711-7.607 6.75-12.749 4.693-2.806 6.659-8.338 10.499-11.999 2.737-0.666 3.994 1.325 5.25 0 2.385-3.187 0.103-3.995 0-8.249 8.281-14.006 23.017-20.375 35.995-30.747 4.948-3.954 8.802-9.142 14.998-11.249 1.459 5.457-4.771 6.544-7.499 9.749-2.24 2.631-3.106 6.704-5.249 9.749-6.865 9.753-16.972 16.388-23.997 26.247-8.202 21.794-21.16 38.833-32.996 56.993-13.012 31.116-26.535 68.729-22.497 110.99 1.197 12.531 4.398 26.669 8.249 38.245-1.344 7.473 0.848 18.709 5.25 24.747 5.862-2.887 4.867-12.631 7.499-18.747h3c3.89 1.859 2.144 9.354 5.999 11.248 11.055-5.443 20.865-12.131 37.496-11.998 3.123-2.377 5.406-5.593 11.999-4.5 10.476-7.572-2.003-19.155-7.499-29.246-6.141-11.274-11.012-22.388-11.999-38.995-1.648-27.736 9.883-55.249 20.248-75.74 3.597-7.113 6.585-14.798 11.998-20.248 2.3 4.019-2.785 8.538 0 14.248 6.521-4.038 10.571-8.68 11.249-16.498 0.405-4.676-2.32-9.536-1.5-14.248 0.704-4.045 6.428-10.571 8.999-14.248 3.326-4.758 7.599-7.395 8.999-12.749 2.072-0.928 3.81-2.19 6.75-2.25 10.831-22.164 17.814-48.178 38.995-59.992 31.639-41.102 80.221-65.261 129.73-88.489 5.396-7.102 17.395-7.603 25.496-11.998 10.163 0.313 18.703-8.346 27.747-2.25-4.884 3.865-13.973 3.525-14.998 11.249-16.4 2.848-27.54 10.955-43.495 14.249-2.18 2.401 1.203 3.784 0.75 6.749-16.411 8.835-33.85 16.644-50.993 24.747-1.548 2.786 1.075 1.96 0.75 5.249-6.648 4.101-13.433 8.065-18.748 13.499-0.553 10.556 6.855 16.94 8.999 26.997-3.868 6.847-12.189 3.51-15.748-1.5-7.303 6.945-17.712 10.784-26.997 15.748-1.399 3.601-2.979 7.02-3 11.999-3.097 2.403-8.046 2.953-9.749 6.749v11.999c-3.633 1.366-7.043 2.956-8.999 6 1.222 2.528-0.059 7.558 1.5 9.749-1.323 3.427-5.94 3.559-7.499 6.749 1.471 9.529-6.584 13.176-5.999 23.997-1.969 3.28-5.877 4.623-7.5 8.249 1.204 12.795 10.349 17.647 11.249 30.746-6.274-0.475-6.417-7.082-11.249-8.999-1.704 13.206 6.901 22.593 13.499 29.996 2.294 10.982 15.092 15.366 15.748 25.497-13.728-5.77-22.713-16.282-35.246-23.247 5.282 15.967 21.273 27.72 37.495 35.246-1.01 6.412-6.296 4.139-8.252 9.002zm392.2-122.23c-2.347 0.153-5.506-0.505-6.75 0.75-4.713 25.445-4.701 51.238-14.998 70.491-4.594 1.095-2.361-4.638-5.999-4.5-0.181 1.319-1.29 1.709-2.999 1.5-0.626 11.789 4.959 23.693 6.749 35.996 1.097 7.54-0.943 17.091 5.249 21.747 9.236-27.085 34.351-49.547 31.496-86.989-0.387-5.075-2.603-10.515-3-15.748-1.172-15.454 1.337-30.497 1.5-44.244-9.91-2.1-5.787 16.165-11.248 20.997zm-301.46 96.739c-23.85 9.715-42.886 31.736-67.491 41.245-2.216 0.856-4.747 0.441-6.75 1.5-6.869 3.632-10.854 11.987-16.498 17.998-4.351 4.633-8.204 9.447-12.749 12.749-2.698 1.302-6.26 1.739-6.75 5.25 3.157 3.854 6.818 1.618 11.249 3.749 3.811 1.834 6.083 7.696 10.499 7.499 5.138-0.229 10.679-9.987 16.498-13.498 5.817-3.51 11.108-6.332 17.998-5.999-3.023 3.226-8.301 4.197-9.749 8.999 20.692-0.997 42.278-15.071 56.243-25.497 18.634-13.911 30.922-30.38 32.996-58.493-8.897-0.791-17.88 1.395-25.496 4.498zm-126.73 25.496c-2.74-0.152-5.535-2.916-7.499-1.5 6.178 10.319 14.391 18.605 26.247 23.247 3.591-4.658 8.074-8.424 9.749-14.999-1.21-2.192-3.865 1.196-4.499-0.75 1.034-1.965 3.418-2.582 3.75-5.25 0.348-9.16-6.288-7.964-12.749-12.749-5.204-3.854-6.669-8.25-11.249-7.499 3.83 6.655 1.031 15.312-3.75 19.5zm71.241 1.5c6.401 1.541 10.508-5.409 16.498-6.75 2.433-6.565 11.137-6.86 12.749-14.248-13.818 2.93-21.597 11.9-29.247 20.998zm216.72 47.994c1.714 3.176 3.223 7.481 1.499 11.999-2.366 0.133-4.473 0.527-4.499 3 4.256 6.169 1.289 15.336-4.5 19.498 1.123-15.534 2.48-33.875 1.5-46.494-4.373 15.125-0.091 38.904-10.498 47.994-4.205-4.554-0.128-16.039-3-20.248-4.761 13.237-10.963 25.033-14.248 39.745-4.572 3.177-3.171 12.328-11.249 11.999-1.626 0.126-0.34-2.66-0.75-3.75-6.784 4.332-5.05 13.765-6.749 20.997-2.088 8.891-5.797 15.99-6.749 25.497-1.051 10.489-0.696 17.021-1.5 25.497-0.511 5.388 0.319 13.629-5.999 15.748-2.319-1.93-0.342-8.157-4.499-8.249-2.087 6.912 2.562 20.56-6.749 20.247-3.119-3.55-0.746-8.092-3-11.998-7.615 5.133-3.557 21.94-12.748 25.497-2.701 18.219-7.961 32.193-12.749 49.493-16.523 2.948-15.354 33.396-8.249 43.495 2.155-3.845 1.098-10.901 2.25-15.748 1.796 0.453 3.421 1.078 5.999 0.75 3.236-3.014 2.864-9.635 6.749-11.999 2.77 2.899 4.66-1.008 8.999 0.75 5.688-15.964 23.197-24.796 28.496-41.245 4.535-14.078 7.406-29.698 13.499-44.244 4.085-4.664 6.772-10.725 8.999-17.248 11.837-12.659 19.643-29.351 31.496-41.994 3.284-13.714 14.656-19.339 16.497-34.496-9.015 3.514-18.621 12.26-28.496 15.748-2.846 1.005-9.471 3.594-11.998 0 13.174-6.369 25.568-12.419 34.495-23.247 9.99-12.118 18.206-34.947 18.748-56.243-6.443-15.054-12.729-30.265-13.498-50.994-4.942-2.057-7.191-6.807-11.999-8.999 7.755 14.966 15.084 40.994 4.5 59.242zm-455.19 8.249c0.568 14.505 3.265 29.55 6.749 42.745 1.856 7.029 2.588 20.283 11.999 16.498-0.128-17.621-10.412-34.395-10.499-53.244-0.086-18.683 5.897-36.73 6.75-56.243-0.959-0.041-1.039-0.961-2.25-0.75-4.295 9.496-13.404 34.281-12.749 50.994zm197.22-32.996c-13.963 15.534-42.034 16.958-55.493 32.996-0.003 15.495-18.428 12.567-23.997 22.497 11.325-3.269 27.583-6.9 38.246-2.249-0.535 6.283 5.326 6.172 6.749 10.498 0.449 3.699-1.949 4.551-1.5 8.249 5.087 2.33 10.273 1.555 15.748 2.25 3.237 5.512 6.846 10.651 14.998 11.248-0.56-6.524-2.93-14.95-1.5-20.997 6.4-2.36 11.595 5.363 9.749 11.249 6.976 17.243 11.903 34.654 19.498 52.493 5.915 8.583 12.703 16.294 16.498 26.997 3.069 0.431 2.989 4.01 6.749 3.749-3.285-21.27-8.353-46.233-15.748-65.242-4.822-12.396-10.04-22.146-22.497-23.247-4.353-2.5-2.5-6.97-3-11.248-0.524-4.487-3.824-11.933-7.499-15.748-4.951-5.14-14.628-10.604-23.247-5.25 0.72 1.817 4.693 4.256 3.75 5.25-4.93 1.901-10.768-0.352-13.499-3-0.401-2.901 1.339-3.661 0.75-6.749 4.324-4.847 12.136-3.593 15.748-5.999 15.205-10.128 27.066-26.254 35.246-42.745-0.085-0.915-0.224-1.776-1.5-1.5-5.917 4.333-10.543 9.955-14.249 16.498zm62.993 29.246c-0.571 2.821 3.982 0.518 3 3.75-6.323 2.176-17.495-0.497-21.747 3.75 0.84 2.16 5.489 0.511 5.999 3-2.055 2.694-9.047 0.452-11.999 2.25-0.616 2.866 3.616 0.884 3 3.75-4.349 1.747-7.851 0.468-11.998 1.499-0.976 1.862 2.2 3.112 0 3.75-3.58 1.046-13.233-0.516-15.748 3.749v7.499c14.856 5.521 22.387 12.275 31.496 24.747 2.25 3.081 1.686 5.067 3 8.249 5.49 13.303 9.757 25.476 10.499 41.245 3.502 1.747 1.181 9.318 5.25 10.499 3.639-4.385 2.834-15.65 2.25-20.998-2.769-25.312-15.781-47.202-31.496-59.242-0.127-1.877 1.152-2.348 2.25-3 3.109-0.859 2.922 1.577 5.249 1.5 13.533-9.16 24.029 4.271 36.745 6.749 6.529 1.272 12.308 0.114 17.998 3.75 6.319-20.063-3-34.065-9.749-47.244 6.826-7.484 20.328-16.084 18.748-26.997-13.041 10.458-27.522 19.473-42.747 27.745zm-383.95-27c-10.216 18.049 5.101 38.65 7.499 60.742 8.81 25.437 10.915 57.576 35.996 66.742 18.291-1.872 36.436 6.201 59.243 7.499 12.456 4.292 18.89 14.605 28.497 21.747 10.113-6.542-1.015-20.285-5.25-26.247 1.845-1.404 3.595-2.903 5.25-4.499 1.869 0.631 4.018 0.981 6.749 0.75 6.375 7.334 16.725 12.695 19.498 23.247 1.011 3.848-1.683 8.112 2.25 11.248 10.847-11.525-0.854-27.613-5.249-37.495 13.56 1.438 13.831 16.166 20.997 23.997 2.238-7.038-3.671-16.867-1.5-21.747 10.137 6.145 10.325 18.733 10.499 32.246-6.671 13.274-25.317 10.083-34.496 20.997 7.419 16.578 30.988 17.006 45.744 26.247 17.601 3.517 29.544 16.379 40.495 24.747 6.916 5.284 16.206 10.043 24.747 14.248 9.137 4.498 18.728 4.646 30.747 7.499 14.064 3.339 27.85 8.9 41.995 13.498 12.199 11.58 28.345 21.771 44.994 19.498 7.815-1.067 10.801-5.802 17.248-10.499 3.938-2.869 8.92-6.196 11.249-8.999 6.738-8.108 5.46-21.299 10.498-29.246 1.258 2.742 1.686 6.313 5.249 6.749 3.241-11.338-2.338-25.897-11.248-25.497-7.982 0.359-10.722 13.382-14.998 18.748-5.572 6.991-19.697 13.213-29.997 15.748-3.171 0.78-6.184 0.048-8.999 0.75-4.583 1.143-8.961 7.04-14.249 3.749 5.646-9.853 23.439-7.557 32.246-14.248-8.618-13.127-18.134-26.6-26.997-38.245-5.972-7.847-15.559-16.045-19.498-23.997-0.498-1.006 0.389-2.688 0-3.749-3.867-10.552-17.916-18.751-26.997-26.247-12.158-10.037-28.286-18.835-31.496-34.496-1.695-8.267 0.905-15.827-6.749-20.247 15.281-7.027 15.517 11.384 11.999 19.497 8.32-1.479 10.568-13.842 8.249-20.247-3.411-9.42-16.393-6.404-24.747-8.249 1.656-7.843 11.271-7.726 15.748-12.748 1.64-5.836 6.162-12.001 1.5-17.998-2.367 0.367-2.648-1.352-5.249-0.75 0.141 11.39-3.591 18.906-13.499 20.248-0.221-1.529-2.029-1.471-2.25-3 2.997-3.252 6.83-5.669 6.749-11.999-2.385-3.483-9.509-5.827-14.998-3.749 1.914 5.742 4.789 13.204 0.75 18.748 3.929 1.569 5.636 5.362 6.749 9.748-2.066 6.212-16.787 13.741-19.498 3.75 3.034-2.422 5.284-0.857 5.999-4.5 2.66-13.542-21.877-0.151-24.747-7.499 7.279-6.505 18.326-5.46 27.747-6.749-0.721-4.479-3.398-7.28-6-8.249-19.017-7.081-31.542 10.154-41.995 16.498-5.198 3.154-10.446 3.517-12.749 7.499 4.447 7.113 17.964 17.856 6 26.247-6.251-0.749-7.668-6.331-10.499-10.499-17.523-5.801-34.275-0.616-51.743-1.5-22.402-1.133-30.563-10.533-44.245-23.997-13.215-13.005-26.667-21.856-34.496-37.495-5.385-0.968-6.971-9.386-12.749-7.499 2.363 8.922 12.171 16.798 17.998 24.747 3.55 6.199 7.359 12.139 12.749 16.498 15.042 21.453 45.092 27.898 60.743 48.744-4.923-2.686-5.069 5.255-8.249 6.749-18-7.5-40.004-10.99-61.475-15.02-19.781-21.96-30.518-52.97-49.494-75.74-3.337-11.169-12.609-23.188-4.5-33.746 3.075-0.075 6.147-0.147 8.249 0.75-1.538-3.708-6.928-3.568-11.996-3.749zm107.24 108.74c-4.063-9.936-16.78-11.217-25.497-16.498 1.895 9.206 14.343 14.079 25.497 16.498zm11.999 58.493c-3.878-4.141-15.75-20.656-23.247-19.498-8.861 1.369 3.686 14.872 5.999 17.248 4.66 4.786 9.718 5.949 11.999 11.249 5.711 2.52 10.146 6.724 15.748 9.748 2.847 1.537 8.265 5.878 9.749 1.5-2.958-6.808-12.156-11.607-20.248-20.247zm56.242-14.998c1.022-0.955 1.158-3.674-0.75-3.75-1.021 0.955-1.158 3.674 0.75 3.75zm-26.246 23.247c1.16-1.091 0.66-3.84 0.75-6-2.611-1.139-4.652-2.847-8.249-2.999-1.044 3.745 1.768 9.582 7.499 8.999zm81.74 59.992c-4.634-4.164-9.135-8.06-14.248-11.999-19.202-14.793-45.948-22.301-77.241-24.746-1.284 6.572-8.95 10.794-5.999 20.997-6.33 10.235-4.042 23.967-5.999 39.745-3.972 2.527-9.104 3.894-11.999 7.499-1.217 10.531-2.935 20.563-6.75 28.496-2.61-26.762 2.538-53.012 3.75-77.24-21.817 26.046-9.735 80.429-7.499 108.74-0.617 15.542-16.025 28.212-17.248 45.744-0.572 8.203 1.801 20.067 1.5 28.497-15-0.478-19.673 13.29-17.248 27.746 13.593 0.3 22.889 12.409 37.495 6.749-0.742-5.192-4.13-7.769-4.5-12.748-1.326-17.886 14.246-19.773 20.248-32.246 7.624-15.843-0.156-35.439-2.25-50.993-1.414-10.499-2.356-20.529-3-32.996 5.794-2.298 2.019-9.521 4.5-14.998 2.633-0.44 2.466 3.544 4.5 1.5 11.708-21.912 18.448-44.743 21.748-74.241-2.063-3.016-9.095-9.364-3-13.498 14.886 5.611 27.277 13.718 44.995 16.498 0.219 2.28 3.966 1.033 4.5 2.999 21 1.997 28.258 17.736 46.494 22.497-2.322-5.299-8.406-8.095-12.749-11.998zm376.45 34.496c3.381 9.606 0.325 22.316 5.999 28.496 1.234-4.707 1.507-9.287 1.5-13.498-0.035-21.215 8.762-36.973 11.998-59.243-0.165-0.584-0.628-0.871-1.499-0.75-8.142 12.857-12.186 29.811-17.998 44.995zm-125.24 0c-3.971 16.527-9.39 31.604-12.748 48.743 11.711-7.036 18.839-18.656 26.996-29.246-3.201-1.549-8.47-1.029-10.499-3.749 0.335-8.18 8.328-5.247 15.748-5.25 1.172-7.726 6.851-22.099 2.25-26.246-7.388 5.11-8.351 16.645-21.747 15.748zm-132.72 44.99c1.06 6.893 0.396 14.138 1.5 20.997 1.341 8.341 3.697 16.3 4.5 24.747 1.197 12.596-0.833 27.568 6 38.995-0.322 1.428-1.616 1.884-1.5 3.749 7.551 5.698 14.126 12.371 18.748 20.998-3.43 0.354-5.767-1.393-7.499 2.999-2.531-0.468-3.338-2.661-5.999-2.999-6.539 12.458-0.8 27.959 3.75 38.995 8.389 0.359 14.06 3.438 22.497 3.749 9.668-4.302 21.178-8.639 22.498-20.247 1.088-9.575-6.896-14.886-12.749-20.997-2.206 1.793-3.499 4.499-6.749 5.249-2.724-4.574 2.157-10.99 0-14.998-3.172-0.173-1.698 4.301-5.999 2.999-0.711-10.245 4.27-19.887 5.249-28.496 2.091-18.383-9.662-30.204-12.748-46.494-8.64-15.606-15.511-32.983-20.248-52.493-7.501-1.998-12.889-6.108-20.248-8.249 0.976 12.555 7.24 20.063 8.997 31.496zm-269.97 120.74c-5.323 10.388-16.672 22.033-14.998 34.496 7.459-1.039 11.454-5.544 17.998-7.499 6.195-8.053 18.226-10.271 23.997-18.748-11.405 1.615-15.267-8.007-26.997-8.249zm308.21 56.243c1.717 3.498 1.651 8.107 5.999 8.249-1.157-9.092-1.499-18.998-3-27.746-4.444-0.806-7.07-3.429-12.749-3 1.074 7.159 6.187 15.236 9.75 22.497z"/>
</svg>

